<?xml version="1.0" encoding="UTF-8"?>
<svg width="3750" height="1875" version="1.1" viewBox="0 0 992.19 496.09" xmlns="http://www.w3.org/2000/svg"><defs><style>.cls-1{fill:#13202c;}.cls-1,.cls-2,.cls-3{stroke:#000;stroke-miterlimit:10;}.cls-2{fill:#fff;}.cls-3{fill:#e09215;}</style></defs><rect transform="translate(0 199.09)" x="5.6843e-14" y="-199.09" width="992.19" height="496.09" fill="#34495e"/><g transform="translate(0 199.09)"><g stroke="#000" stroke-miterlimit="10" stroke-width=".13583"><path class="cls-1" d="m221.65 44.058v23.015l-28.949 9.011v-83.692q-0.83807-0.025808-1.6816-0.025808-0.84351 0-1.6816 0.025808v29.574l-28.993 9.0232v-29.595q-1.725 1.1138-3.3632 2.3512v51.5h3.3632v-20.734l28.993-9.0246v80.026q0.83807 0.0258 1.6816 0.0258 0.8435 0 1.6816-0.0258v-25.908l28.949-9.0096v25.944q1.7264-1.1124 3.3618-2.3444v-50.136z" fill="#13202c"/><path class="cls-2" d="m221.65 44.058v23.015l-28.949 9.011v-83.692q-0.83807-0.025808-1.6816-0.025808-0.84351 0-1.6816 0.025808v29.574l-28.993 9.0232v-29.595q-1.725 1.1138-3.3632 2.3512v51.5h3.3632v-20.734l28.993-9.0246v80.026q0.83807 0.0258 1.6816 0.0258 0.8435 0 1.6816-0.0258v-25.908l28.949-9.0096v25.944q1.7264-1.1124 3.3618-2.3444v-50.136z" fill="#fff"/><path class="cls-1" d="m190.99-17.125c-36.492 0-66.077 29.584-66.077 66.077 0 36.493 29.585 66.079 66.077 66.079 36.492 0 66.079-29.584 66.079-66.079 0-36.495-29.584-66.077-66.079-66.077zm8.0683 101.05 15.801-4.6807v21.043a56.174 56.174 0 0 1-15.801 4.6875zm15.801-45.953v24.492l-15.801 4.6793v-74.205c27.438 3.9065 48.542 27.499 48.542 56.019a56.401 56.401 0 0 1-16.649 40.088v-51.072zm-47.691 21.968v-21.07l15.8-4.6807v70.785c-27.438-3.9065-48.54-27.499-48.54-56.018a56.407 56.408 0 0 1 16.655-40.088v51.072zm15.8-42.531-15.8 4.6793v-24.458a56.178 56.178 0 0 1 15.8-4.6875z" fill="#13202c"/><path class="cls-3" d="m225.01 44.058v50.136q-1.63 1.232-3.3618 2.3444v-25.944l-28.949 9.0096v25.908q-0.83807 0.0258-1.6816 0.0258-0.84351 0-1.6816-0.0258v-80.026l-28.993 9.0246v20.734h-3.3632v-51.5q1.63-1.2361 3.3632-2.3512v29.595l28.993-9.0232v-29.574q0.83807-0.025808 1.6816-0.025808 0.8435 0 1.6816 0.025808v83.692l28.949-9.011v-23.015z" fill="#e09215"/></g><g fill="#fff" stroke-width=".26458px" aria-label="Hyphen-Hacks"><path d="m296.83 21.172h10.478v22.701h17.939v-22.701h10.478v55.562h-10.478v-22.86h-17.939v22.86h-10.478z"/><path d="m373.37 37.364h10.001v49.054q0 2.6988-1.7462 4.445-1.6669 1.7462-4.3656 1.7462h-23.416v-9.525h17.383q2.1431 0 2.1431-2.3812v-9.6838h-1.4288q-2.6194 6.8262-11.271 6.8262-2.9369 0-5.4769-0.9525t-4.445-2.9369-3.0162-4.9212q-1.0319-3.0162-1.0319-7.0644v-24.606h10.001v22.542q0 4.2069 1.9844 6.5881 1.9844 2.3019 5.9531 2.3019 4.5244 0 6.5881-2.8575 2.1431-2.9369 2.1431-7.9375z"/><path d="m403.16 92.609h-10.001v-55.245h10.001v5.715h1.4288q1.5875-3.2544 4.6038-5.0006 3.0162-1.8256 7.6994-1.8256 3.4925 0 6.5881 1.3494 3.175 1.3494 5.4769 3.9688 2.3812 2.54 3.7306 6.2706 1.4288 3.7306 1.4288 8.4931v1.4288q0 4.8419-1.3494 8.5725-1.3494 3.7306-3.6512 6.35-2.3019 2.54-5.4769 3.8894-3.0956 1.27-6.7469 1.27-2.6988 0-4.6831-0.55562-1.9844-0.55562-3.4925-1.5081-1.4288-0.9525-2.4606-2.1431-0.9525-1.27-1.6669-2.6194h-1.4288zm10.478-24.289q4.6831 0 7.5406-2.8575 2.9369-2.9369 2.9369-7.9375v-0.9525q0-5.0006-2.9369-7.8581-2.8575-2.9369-7.5406-2.9369-4.6831 0-7.62 3.0162-2.8575 2.9369-2.8575 7.7788v0.9525q0 4.8419 2.8575 7.8581 2.9369 2.9369 7.62 2.9369z"/><path d="m453.91 76.734h-10.001v-55.562h10.001v22.542h1.4288q1.5081-3.5719 4.445-5.4769 2.9369-1.9844 7.2231-1.9844 2.9369 0 5.3975 0.9525 2.4606 0.9525 4.2862 2.8575 1.8256 1.905 2.8575 4.9212 1.0319 2.9369 1.0319 6.985v24.765h-10.001v-22.384q0-4.2069-2.0638-6.5881-1.9844-2.4606-5.7944-2.4606-4.445 0-6.6675 3.0162-2.1431 2.9369-2.1431 7.9375z"/><path d="m501.08 60.304q0.0794 1.7462 0.79375 3.2544 0.79375 1.4288 2.0638 2.54 1.3494 1.0319 3.0162 1.6669 1.7462 0.55562 3.6512 0.55562 3.7306 0 5.715-1.27 1.9844-1.3494 2.8575-3.175l8.5725 4.7625q-0.71437 1.5081-1.9844 3.175-1.27 1.5875-3.3338 2.9369-1.9844 1.3494-4.9212 2.2225-2.8575 0.87312-6.7469 0.87312-4.445 0-8.0962-1.4288t-6.35-4.1275q-2.6194-2.6988-4.1275-6.5881-1.4288-3.8894-1.4288-8.8106v-0.47625q0-4.5244 1.5081-8.255 1.5875-3.7306 4.2862-6.35t6.2706-4.0481q3.6512-1.5081 7.7788-1.5081 5.08 0 8.7312 1.8256 3.6512 1.7462 6.0325 4.5244 2.3812 2.6988 3.4925 6.0325 1.1112 3.2544 1.1112 6.35v5.3181zm9.4456-15.002q-3.81 0-6.1912 1.9844-2.3812 1.905-3.0956 4.445h18.574q-0.47625-2.7781-3.0162-4.6038-2.4606-1.8256-6.2706-1.8256z"/><path d="m550.8 76.734h-10.001v-39.37h10.001v5.8738h1.4288q1.3494-3.3338 4.3656-5.1594t7.0644-1.8256q2.8575 0 5.3181 0.9525 2.54 0.87312 4.445 2.7781t2.9369 4.8419q1.1112 2.9369 1.1112 6.985v24.924h-10.001v-22.384q0-4.2069-2.0638-6.5881-1.9844-2.4606-5.7944-2.4606-4.445 0-6.6675 3.0162-2.1431 2.9369-2.1431 7.9375z"/><path d="m595.03 50.382h24.765v9.0488h-24.765z"/><path d="m636.49 21.172h10.478v22.701h17.939v-22.701h10.478v55.562h-10.478v-22.86h-17.939v22.86h-10.478z"/><path d="m711.85 71.019q-1.5875 3.7306-4.445 5.3181-2.8575 1.5081-6.6675 1.5081-3.5719 0-6.7469-1.3494-3.0956-1.3494-5.4769-3.9688t-3.81-6.35q-1.3494-3.7306-1.3494-8.4931v-1.27q0-4.6831 1.3494-8.4138 1.3494-3.7306 3.6512-6.35 2.3019-2.6194 5.3181-3.9688 3.0956-1.4288 6.5881-1.4288 4.2069 0 6.7469 1.4288 2.6194 1.4288 4.1275 4.445h1.4288v-4.7625h10.001v27.464q0 2.3812 2.1431 2.3812h1.5081v9.525h-6.8262q-2.6988 0-4.445-1.5875-1.6669-1.5875-1.6669-4.1275zm-8.89-2.6988q4.3656 0 6.985-2.8575 2.6194-2.9369 2.6194-7.9375v-0.9525q0-5.0006-2.6194-7.8581-2.6194-2.9369-6.985-2.9369-4.3656 0-6.985 2.9369-2.6194 2.8575-2.6194 7.8581v0.9525q0 5.0006 2.6194 7.9375 2.6194 2.8575 6.985 2.8575z"/><path d="m773.31 62.288q-1.3494 6.985-6.4294 11.271-5.0006 4.2862-13.414 4.2862-4.3656 0-8.1756-1.3494-3.7306-1.3494-6.5088-3.8894-2.7781-2.54-4.3656-6.2706t-1.5875-8.4931v-0.9525q0-4.7625 1.5875-8.5725t4.3656-6.5088q2.8575-2.6988 6.5881-4.1275 3.81-1.4288 8.0962-1.4288 8.255 0 13.335 4.2862 5.1594 4.2862 6.5088 11.271l-9.8425 2.54q-0.47625-3.4925-3.0162-6.0325t-7.1438-2.54q-2.1431 0-4.0481 0.79375t-3.3338 2.3019q-1.4288 1.4288-2.3019 3.5719-0.79375 2.0638-0.79375 4.6831v0.47625q0 2.6194 0.79375 4.6831 0.87312 1.9844 2.3019 3.3338t3.3338 2.0638q1.905 0.635 4.0481 0.635 4.6038 0 6.985-2.3019 2.4606-2.3019 3.175-6.1912z"/><path d="m796.59 51.811h1.905l10.478-14.446h10.954v0.47625l-12.7 18.018v1.4288l13.97 18.971v0.47625h-11.43l-11.271-15.399h-1.905v15.399h-10.001v-55.562h10.001z"/><path d="m844.48 48.477q0 1.905 1.9844 2.7781 1.9844 0.79375 7.2231 1.3494 6.0325 0.635 9.8425 3.6512 3.81 2.9369 3.81 8.255v0.47625q0 5.8738-4.2862 9.3662t-12.065 3.4925q-4.6038 0-7.8581-1.1906-3.2544-1.1906-5.3975-2.9369-2.1431-1.8256-3.3338-3.9688-1.1112-2.2225-1.5081-4.2862l9.2075-3.0162q0.635 2.54 2.6194 4.445 2.0638 1.905 6.2706 1.905 3.7306 0 5.08-1.1112 1.4288-1.1906 1.4288-2.54 0-0.79375-0.39687-1.4288-0.3175-0.71438-1.27-1.27-0.9525-0.635-2.6194-1.0319-1.5875-0.39688-4.0481-0.635-6.6675-0.55562-10.636-3.4131-3.8894-2.9369-3.8894-8.5725v-0.47625q0-2.9369 1.27-5.1594t3.3338-3.7306q2.0638-1.5875 4.7625-2.3812t5.5562-0.79375q3.7306 0 6.4294 0.9525 2.7781 0.87312 4.6831 2.3812 1.905 1.4288 3.0956 3.2544 1.1906 1.7462 1.8256 3.4131l-9.0488 3.6512q-0.71437-2.1431-2.4606-3.3338-1.7462-1.27-4.5244-1.27-2.54 0-3.81 0.9525-1.27 0.87312-1.27 2.2225z"/></g><g fill-opacity="0"><rect x="296.83" y="21.172" width="570.52" height="55.562"/><rect x="92.075" y="-136.92" width="586.32" height="342.9" ry="0"/><rect x="582.08" y="-37.433" width="268.82" height="246.59"/></g></g></svg>
