<svg xmlns="http://www.w3.org/2000/svg" viewBox="0 0 973.95 973.95"><defs><style>.cls-1{fill:#13202c;}.cls-1,.cls-2,.cls-3{stroke:#000;stroke-miterlimit:10;}.cls-2{fill:#fff;}.cls-3{fill:#e09215;}</style></defs><title>symbollogo2</title><g id="Layer_3" data-name="Layer 3"><path class="cls-1" d="M833.48,560.83V730.27L620.35,796.61V180.46q-6.17-.19-12.38-.19t-12.38.19V398.19L382.14,464.62V246.74q-12.7,8.2-24.76,17.31V643.2h24.76V490.55l213.45-66.44v589.16q6.17.19,12.38.19t12.38-.19V822.53L833.48,756.2v191q12.71-8.19,24.75-17.26V560.83Z" transform="translate(-120.83 -109.89)"/><path class="cls-2" d="M833.48,560.83V730.27L620.35,796.61V180.46q-6.17-.19-12.38-.19t-12.38.19V398.19L382.14,464.62V246.74q-12.7,8.2-24.76,17.31V643.2h24.76V490.55l213.45-66.44v589.16q6.17.19,12.38.19t12.38-.19V822.53L833.48,756.2v191q12.71-8.19,24.75-17.26V560.83Z" transform="translate(-120.83 -109.89)"/><path class="cls-1" d="M607.8,110.39c-268.66,0-486.47,217.8-486.47,486.47s217.81,486.48,486.47,486.48,486.48-217.8,486.48-486.48S876.48,110.39,607.8,110.39Zm59.4,743.92,116.33-34.46V974.77a413.56,413.56,0,0,1-116.33,34.51ZM783.53,516V696.31L667.2,730.76V184.45c202,28.76,357.37,202.45,357.37,412.42A415.23,415.23,0,0,1,902,892V516ZM432.42,677.73V522.61l116.32-34.46v521.13c-202-28.76-357.36-202.45-357.36-412.41A415.28,415.28,0,0,1,314,301.74v376ZM548.74,364.61,432.42,399.06V219a413.59,413.59,0,0,1,116.32-34.51Z" transform="translate(-120.83 -109.89)"/><path class="cls-3" d="M858.23,560.83V929.94q-12,9.07-24.75,17.26v-191L620.35,822.53v190.74q-6.17.19-12.38.19t-12.38-.19V424.11L382.14,490.55V643.2H357.38V264.05q12-9.1,24.76-17.31V464.62l213.45-66.43V180.46q6.17-.19,12.38-.19t12.38.19V796.61l213.13-66.34V560.83Z" transform="translate(-120.83 -109.89)"/></g></svg>