<?xml version="1.0" standalone="no"?>
<!DOCTYPE svg PUBLIC "-//W3C//DTD SVG 20010904//EN"
 "http://www.w3.org/TR/2001/REC-SVG-20010904/DTD/svg10.dtd">
<svg version="1.0" xmlns="http://www.w3.org/2000/svg"
 width="700.000000pt" height="700.000000pt" viewBox="0 0 700.000000 700.000000"
 preserveAspectRatio="xMidYMid meet">
<metadata>
Created by potrace 1.11, written by Peter Selinger 2001-2013
</metadata>
<g transform="translate(0.000000,700.000000) scale(0.100000,-0.100000)"
fill="#000000" stroke="none">
<path d="M3278 6996 c-1 -2 -41 -6 -88 -10 -87 -7 -105 -9 -225 -27 -116 -18
-123 -19 -192 -35 -154 -34 -203 -47 -313 -81 -295 -90 -617 -243 -881 -418
-669 -445 -1150 -1070 -1403 -1827 -31 -94 -79 -267 -91 -329 -3 -13 -11 -58
-20 -99 -29 -147 -35 -193 -52 -370 -15 -162 -8 -592 12 -711 2 -13 6 -46 9
-74 9 -78 22 -152 51 -285 21 -96 91 -339 114 -395 5 -11 25 -65 46 -120 63
-166 249 -531 312 -610 4 -6 34 -49 65 -95 52 -78 214 -286 263 -336 183 -192
264 -270 392 -376 88 -73 327 -248 339 -248 3 0 25 -14 49 -30 24 -17 47 -30
51 -30 4 0 15 -6 23 -14 29 -25 304 -161 431 -213 188 -76 407 -146 561 -179
149 -31 157 -32 284 -50 22 -3 51 -8 65 -10 184 -30 696 -24 907 10 21 4 56 9
78 11 139 17 425 92 620 161 176 63 520 225 584 275 13 11 30 19 37 19 8 0 14
5 14 10 0 6 4 10 9 10 16 0 212 134 323 220 156 122 330 285 458 429 36 41 70
79 76 85 29 30 185 242 240 326 231 352 392 733 490 1153 9 38 26 123 29 147
9 59 17 107 20 120 2 8 7 47 11 85 3 39 8 84 11 100 8 60 10 513 2 597 -13
144 -22 210 -39 308 -6 36 -13 79 -16 95 -3 17 -21 91 -39 165 -193 779 -660
1478 -1311 1962 -193 143 -478 309 -674 393 -36 15 -80 34 -98 42 -172 75
-563 183 -752 208 -19 3 -46 7 -60 10 -13 2 -52 7 -86 11 -33 3 -74 8 -90 10
-33 5 -540 14 -546 10z m-203 -1182 c0 -555 -2 -638 -15 -645 -13 -7 -656
-199 -773 -231 -21 -6 -40 -8 -43 -5 -10 9 -7 1278 3 1287 4 5 49 25 98 45 50
20 99 40 110 45 39 18 212 70 330 99 126 32 151 37 225 47 25 3 47 8 49 10 3
2 7 0 10 -5 4 -5 6 -296 6 -647z m930 641 c22 -4 51 -9 64 -11 164 -31 381
-95 542 -160 899 -363 1555 -1113 1797 -2054 11 -41 23 -93 27 -115 5 -22 9
-46 11 -53 3 -18 22 -139 28 -182 27 -187 27 -619 1 -759 -1 -9 -6 -36 -10
-61 -3 -25 -8 -56 -11 -70 -4 -29 -30 -156 -37 -185 -33 -132 -68 -248 -114
-370 -114 -308 -341 -684 -548 -910 -16 -18 -50 -55 -74 -81 -24 -27 -49 -52
-55 -56 -8 -4 -11 356 -10 1343 l1 1349 -31 1 c-45 1 -745 1 -786 0 l-35 -1 0
-646 c0 -355 -2 -647 -5 -649 -5 -3 -60 -20 -385 -115 -71 -21 -193 -57 -270
-80 -77 -24 -148 -43 -158 -44 -18 -1 -18 67 -18 1924 0 1059 0 1942 1 1962 0
29 3 36 18 34 9 -2 35 -7 57 -11z m-2619 -2181 c-1 -740 2 -1348 6 -1350 6 -4
559 -7 794 -5 l52 1 0 556 c0 305 1 557 3 558 3 3 271 83 709 211 63 19 117
32 120 30 8 -5 6 -3730 -3 -3734 -6 -3 -59 3 -127 14 -40 7 -169 37 -196 46
-17 5 -42 12 -55 14 -50 10 -218 69 -334 117 -878 366 -1530 1121 -1760 2038
-19 74 -37 158 -41 185 -3 28 -8 53 -10 56 -5 9 -24 170 -31 269 -12 166 -6
481 11 580 3 14 7 43 11 65 14 100 27 166 45 245 11 47 22 93 25 103 12 51 62
205 96 297 45 119 216 470 230 470 5 0 9 5 9 11 0 17 155 243 221 324 70 84
217 245 224 245 0 0 1 -606 1 -1346z m3379 -2936 c0 -541 0 -551 -20 -564 -27
-17 -198 -84 -310 -122 -127 -42 -346 -96 -445 -108 -25 -4 -49 -7 -53 -8 -9
-1 -12 1102 -3 1111 3 3 186 59 407 124 221 65 404 121 407 124 3 3 8 3 11 -1
3 -3 6 -253 6 -556z"/>
</g>
</svg>
