<svg xmlns="http://www.w3.org/2000/svg" viewBox="0 0 3359.78 1141.39"><defs><style>.cls-1,.cls-5{fill:#d35e5d;}.cls-2{fill:#a55555;}.cls-3,.cls-4{fill:#894d4d;}.cls-4,.cls-5{font-size:499.31px;font-family:Gotham-Medium, Gotham;font-weight:500;}.cls-4,.cls-7{letter-spacing:0.08em;}.cls-5{letter-spacing:0.07em;}.cls-6{letter-spacing:0.04em;}</style></defs><title>wordmark small</title><g id="Layer_2" data-name="Layer 2"><g id="Layer_1-2" data-name="Layer 1"><path class="cls-1" d="M269.25,7.41,720.87,536.07a21.14,21.14,0,0,1-12.21,34.51L25,697.36A21.13,21.13,0,0,1,1.24,669.53l232-655.44A21.13,21.13,0,0,1,269.25,7.41Z"/><path class="cls-2" d="M259.45,184.76l525.7,455.06a21.14,21.14,0,0,1-6.9,35.95L121.3,903.51a21.13,21.13,0,0,1-27.67-24l131.24-682.8A21.13,21.13,0,0,1,259.45,184.76Z"/><path class="cls-3" d="M255,374.26,857.18,721.91a21.13,21.13,0,0,1,0,36.6L255,1106.16a21.13,21.13,0,0,1-31.69-18.3V392.56A21.12,21.12,0,0,1,255,374.26Z"/><text class="cls-4" transform="translate(939.64 1004.09)">ROCKET</text><text class="cls-5" transform="translate(939.64 509.95)">S<tspan class="cls-6" x="353.01" y="0">T</tspan><tspan class="cls-7" x="698.53" y="0">OMP</tspan></text></g></g></svg>