<svg xmlns="http://www.w3.org/2000/svg" viewBox="0 0 972.95 972.95"><defs><style>.cls-1{fill:#13202c;}.cls-2{fill:#fff;}.cls-3{fill:#e09215;}</style></defs><title>Blue Hyphen Hacks</title><g id="Layer_2" data-name="Layer 2"><g id="Layer_1-2" data-name="Layer 1"><path class="cls-1" d="M712.15,450.44V619.88L499,686.22V70.07q-6.16-.19-12.38-.19t-12.38.19V287.8L260.81,354.23V136.35q-12.7,8.21-24.76,17.31V532.81h24.76V380.16l213.45-66.44V902.88q6.17.2,12.38.19t12.38-.19V712.14l213.13-66.33v191q12.71-8.19,24.75-17.26V450.44Z"/><path class="cls-2" d="M712.15,450.44V619.88L499,686.22V70.07q-6.16-.19-12.38-.19t-12.38.19V287.8L260.81,354.23V136.35q-12.7,8.21-24.76,17.31V532.81h24.76V380.16l213.45-66.44V902.88q6.17.2,12.38.19t12.38-.19V712.14l213.13-66.33v191q12.71-8.19,24.75-17.26V450.44Z"/><path class="cls-1" d="M486.47,0C217.81,0,0,217.8,0,486.47S217.81,973,486.47,973,973,755.15,973,486.47,755.15,0,486.47,0Zm59.4,743.92L662.2,709.46V864.38a413.57,413.57,0,0,1-116.33,34.51ZM662.2,405.61V585.92L545.87,620.37V74.06c202,28.76,357.37,202.45,357.37,412.42A415.26,415.26,0,0,1,780.67,781.61v-376ZM311.09,567.34V412.22l116.32-34.46V898.89c-202-28.76-357.36-202.45-357.36-412.41A415.27,415.27,0,0,1,192.67,191.35v376ZM427.41,254.22,311.09,288.67V108.61A413.5,413.5,0,0,1,427.41,74.1Z"/><path class="cls-3" d="M736.9,450.44V819.55q-12,9.08-24.75,17.26v-191L499,712.14V902.88q-6.16.2-12.38.19t-12.38-.19V313.72L260.81,380.16V532.81H236.05V153.66q12-9.1,24.76-17.31V354.23L474.26,287.8V70.07q6.17-.19,12.38-.19t12.38.19V686.22l213.13-66.34V450.44Z"/></g></g></svg>